<svg width="632.9937866210937px" height="203.6px" xmlns="http://www.w3.org/2000/svg" viewBox="-66.49689331054685 -26.799999999999997 632.9937866210937 203.6" style="background: rgba(0, 0, 0, 0);" preserveAspectRatio="xMidYMid"><defs><linearGradient id="editing-outline-gradient" x1="-0.43969262078590843" x2="1.4396926207859084" y1="0.1579798566743313" y2="0.8420201433256687"><stop offset="0" stop-color="#ffffff"></stop><stop offset="1" stop-color="#000000"></stop></linearGradient><filter id="editing-outline" x="-100%" y="-100%" width="300%" height="300%"><feMorphology in="SourceGraphic" operator="dilate" radius="2" result="outline"></feMorphology><feComposite operator="out" in="outline" in2="SourceAlpha"></feComposite></filter></defs><g filter="url(#editing-outline)"><g transform="translate(21.944993495941162, 118.5)"><path d="M11.25-56.49L11.25-56.49L11.25-56.49Q7.31-59.51 7.31-65.95L7.31-65.95L7.31-65.95Q7.31-72.38 11.54-75.75L11.54-75.75L11.54-75.75Q15.78-79.11 23.08-79.11L23.08-79.11L23.08-79.11Q27.72-79.11 38.74-77.49L38.74-77.49L46.63-76.33L46.63-76.33Q50.58-75.86 54.69-75.86L54.69-75.86L54.69-75.86Q58.81-75.86 61.60-77.60L61.60-77.60L61.60-77.60Q65.77-73.89 65.77-68.56L65.77-68.56L65.77-68.56Q65.77-63.22 61.02-59.39L61.02-59.39L61.02-59.39Q56.14-55.33 49.88-55.33L49.88-55.33L49.88-55.33Q46.86-55.33 41.99-56.14L41.99-56.14L41.99-56.14Q36.31-38.28 36.31-25.87L36.31-25.87L36.31-25.87Q36.31-13.46 42.57-6.96L42.57-6.96L42.57-6.96Q39.67-1.74 35.38 0.29L35.38 0.29L35.38 0.29Q31.09 2.32 24.65 2.32L24.65 2.32L24.65 2.32Q18.21 2.32 14.21-1.22L14.21-1.22L14.21-1.22Q10.21-4.76 10.21-12.06L10.21-12.06L10.21-12.06Q10.21-20.53 14.85-34.45L14.85-34.45L14.85-34.45Q19.49-48.26 26.45-58.81L26.45-58.81L26.45-58.81Q23.08-59.16 19.60-59.16L19.60-59.16L19.60-59.16Q12.41-59.16 11.25-56.49ZM103.70-19.60L103.70-19.60L103.70-19.60Q106.60-17.63 106.60-13.28L106.60-13.28L106.60-13.28Q106.60-8.93 104.40-6.15L104.40-6.15L104.40-6.15Q102.20-3.36 98.60-1.51L98.60-1.51L98.60-1.51Q91.18 2.32 83.17 2.32L83.17 2.32L83.17 2.32Q75.17 2.32 70.47 0.58L70.47 0.58L70.47 0.58Q65.77-1.16 62.64-4.41L62.64-4.41L62.64-4.41Q56.49-10.56 56.49-21.81L56.49-21.81L56.49-21.81Q56.49-39.32 66.00-50.00L66.00-50.00L66.00-50.00Q76.21-61.48 93.96-61.48L93.96-61.48L93.96-61.48Q104.98-61.48 110.43-56.84L110.43-56.84L110.43-56.84Q114.49-53.36 114.49-47.68L114.49-47.68L114.49-47.68Q114.49-27.26 79.23-27.26L79.23-27.26L79.23-27.26Q78.76-24.24 78.76-21.69L78.76-21.69L78.76-21.69Q78.76-16.36 81.14-14.33L81.14-14.33L81.14-14.33Q83.52-12.30 87.93-12.30L87.93-12.30L87.93-12.30Q92.34-12.30 97.03-14.33L97.03-14.33L97.03-14.33Q101.73-16.36 103.70-19.60ZM80.04-32.25L80.04-32.25L80.04-32.25Q88.28-32.25 93.03-37.35L93.03-37.35L93.03-37.35Q97.79-42.22 97.79-50.00L97.79-50.00L97.79-50.00Q97.79-52.66 96.80-54.11L96.80-54.11L96.80-54.11Q95.82-55.56 93.84-55.56L93.84-55.56L93.84-55.56Q91.87-55.56 90.19-54.81L90.19-54.81L90.19-54.81Q88.51-54.06 86.77-51.50L86.77-51.50L86.77-51.50Q82.48-45.70 80.04-32.25ZM175.39-48.26L175.39-48.26L175.39-48.26Q175.39-43.38 171.33-40.37L171.33-40.37L171.33-40.37Q167.27-37.35 160.66-37.35L160.66-37.35L160.66-37.35Q157.88-37.35 156.25-38.16L156.25-38.16L156.25-38.16Q157.53-41.18 157.93-44.95L157.93-44.95L157.93-44.95Q158.34-48.72 158.34-49.76L158.34-49.76L158.34-49.76Q158.34-54.64 154.98-54.64L154.98-54.64L154.98-54.64Q152.66-54.64 150.05-51.74L150.05-51.74L150.05-51.74Q147.44-48.84 145.23-44.31L145.23-44.31L145.23-44.31Q140.36-33.87 140.36-23.32L140.36-23.32L140.36-23.32Q140.36-17.52 142.56-14.91L142.56-14.91L142.56-14.91Q144.77-12.30 149.64-12.30L149.64-12.30L149.64-12.30Q156.37-12.30 161.70-17.86L161.70-17.86L161.70-17.86Q163.21-19.60 164.02-21.58L164.02-21.58L164.02-21.58Q168.43-19.26 168.43-12.88L168.43-12.88L168.43-12.88Q168.43-6.38 161.24-2.09L161.24-2.09L161.24-2.09Q153.82 2.32 141.98 2.32L141.98 2.32L141.98 2.32Q118.44 2.32 118.44-22.62L118.44-22.62L118.44-22.62Q118.44-40.83 128.76-51.27L128.76-51.27L128.76-51.27Q138.74-61.48 157.06-61.48L157.06-61.48L157.06-61.48Q175.39-61.48 175.39-48.26ZM236.87-12.88L236.87-12.88L236.87-12.88Q236.87-7.77 242.09-6.26L242.09-6.26L242.09-6.26Q240.82-1.97 235.83 0.35L235.83 0.35L235.83 0.35Q231.65 2.32 227.07 2.32L227.07 2.32L227.07 2.32Q222.49 2.32 220.11 1.10L220.11 1.10L220.11 1.10Q217.73-0.12 216.46-2.09L216.46-2.09L216.46-2.09Q214.37-5.10 214.37-10.79L214.37-10.79L214.37-10.79Q214.37-14.15 216.22-23.43L216.22-23.43L217.85-32.25L217.85-32.25Q219.82-42.34 219.82-46.05L219.82-46.05L219.82-46.05Q219.82-52.55 216.22-52.55L216.22-52.55L216.22-52.55Q211.70-52.55 208.80-45.94L208.80-45.94L208.80-45.94Q207.64-43.38 206.83-39.56L206.83-39.56L198.94 0L175.62 2.32L191.98-81.20L215.30-83.52L214.37-78.88L214.37-78.88Q211.12-61.02 208.34-54.98L208.34-54.98L208.34-54.98Q214.83-61.48 226.78-61.48L226.78-61.48L226.78-61.48Q239.42-61.48 241.74-53.13L241.74-53.13L241.74-53.13Q242.56-50.46 242.56-48.14L242.56-48.14L242.56-48.14Q242.56-45.82 242.38-44.02L242.38-44.02L242.38-44.02Q242.21-42.22 241.63-38.98L241.63-38.98L240.12-30.62L237.45-17.52L237.45-17.52Q236.87-14.85 236.87-12.88ZM299.98-17.86L299.98-17.86L299.98-17.86Q302.18-15.08 302.18-9.69L302.18-9.69L302.18-9.69Q302.18-4.29 298.06-0.99L298.06-0.99L298.06-0.99Q293.94 2.32 286.75 2.32L286.75 2.32L286.75 2.32Q282.58 2.32 276.08 1.39L276.08 1.39L276.08 1.39Q263.32-0.58 259.67-0.58L259.67-0.58L259.67-0.58Q256.01-0.58 254.50-0.41L254.50-0.41L254.50-0.41Q253.00-0.23 250.56 0L250.56 0L264.60-76.56L290-76.56L278.40-12.76L278.40-12.76Q279.91-12.53 281.30-12.53L281.30-12.53L284.20-12.53L284.20-12.53Q293.94-12.53 299.98-17.86ZM337.79-6.38L337.79-6.38L337.79-6.38Q334.20 2.32 322.71 2.32L322.71 2.32L322.71 2.32Q316.80 2.32 313.08-1.74L313.08-1.74L313.08-1.74Q309.95-5.34 309.95-8.93L309.95-8.93L309.95-8.93Q309.95-18.33 314.24-36.66L314.24-36.66L318.54-59.16L342.08-61.48L335.01-24.82L335.01-24.82Q333.04-16.24 333.04-13.22L333.04-13.22L333.04-13.22Q333.04-6.61 337.79-6.38ZM320.62-75.28L320.62-75.28L320.62-75.28Q320.62-79.81 324.39-82.24L324.39-82.24L324.39-82.24Q328.16-84.68 333.62-84.68L333.62-84.68L333.62-84.68Q339.07-84.68 342.37-82.24L342.37-82.24L342.37-82.24Q345.68-79.81 345.68-75.28L345.68-75.28L345.68-75.28Q345.68-70.76 342.03-68.44L342.03-68.44L342.03-68.44Q338.37-66.12 332.92-66.12L332.92-66.12L332.92-66.12Q327.47-66.12 324.05-68.44L324.05-68.44L324.05-68.44Q320.62-70.76 320.62-75.28ZM392.89-67.28L392.89-67.28L392.89-67.28Q394.52-70.06 394.52-73.08L394.52-73.08L394.52-73.08Q394.52-78.42 391.27-78.42L391.27-78.42L391.27-78.42Q386.28-78.42 384.19-68.21L384.19-68.21L382.45-59.16L393.01-59.16L392.31-53.94L381.41-53.94L370.97 0L347.54 2.32L358.67-53.94L350.44-53.94L351.48-59.16L359.60-59.16L362.04-68.32L362.04-68.32Q364.12-76.79 373.06-80.74L373.06-80.74L373.06-80.74Q379.55-83.52 390.46-83.52L390.46-83.52L390.46-83.52Q401.36-83.52 406.23-80.74L406.23-80.74L406.23-80.74Q411.10-77.95 411.10-74.24L411.10-74.24L411.10-74.24Q411.10-70.53 408.20-68.21L408.20-68.21L408.20-68.21Q405.30-65.89 402.06-65.89L402.06-65.89L402.06-65.89Q395.68-65.89 392.89-67.28ZM438.02-19.60L438.02-19.60L438.02-19.60Q440.92-17.63 440.92-13.28L440.92-13.28L440.92-13.28Q440.92-8.93 438.71-6.15L438.71-6.15L438.71-6.15Q436.51-3.36 432.91-1.51L432.91-1.51L432.91-1.51Q425.49 2.32 417.48 2.32L417.48 2.32L417.48 2.32Q409.48 2.32 404.78 0.58L404.78 0.58L404.78 0.58Q400.08-1.16 396.95-4.41L396.95-4.41L396.95-4.41Q390.80-10.56 390.80-21.81L390.80-21.81L390.80-21.81Q390.80-39.32 400.32-50.00L400.32-50.00L400.32-50.00Q410.52-61.48 428.27-61.48L428.27-61.48L428.27-61.48Q439.29-61.48 444.74-56.84L444.74-56.84L444.74-56.84Q448.80-53.36 448.80-47.68L448.80-47.68L448.80-47.68Q448.80-27.26 413.54-27.26L413.54-27.26L413.54-27.26Q413.08-24.24 413.08-21.69L413.08-21.69L413.08-21.69Q413.08-16.36 415.45-14.33L415.45-14.33L415.45-14.33Q417.83-12.30 422.24-12.30L422.24-12.30L422.24-12.30Q426.65-12.30 431.35-14.33L431.35-14.33L431.35-14.33Q436.04-16.36 438.02-19.60ZM414.35-32.25L414.35-32.25L414.35-32.25Q422.59-32.25 427.34-37.35L427.34-37.35L427.34-37.35Q432.10-42.22 432.10-50.00L432.10-50.00L432.10-50.00Q432.10-52.66 431.11-54.11L431.11-54.11L431.11-54.11Q430.13-55.56 428.16-55.56L428.16-55.56L428.16-55.56Q426.18-55.56 424.50-54.81L424.50-54.81L424.50-54.81Q422.82-54.06 421.08-51.50L421.08-51.50L421.08-51.50Q416.79-45.70 414.35-32.25Z" fill="url(#editing-outline-gradient)"></path></g></g><style>text {
  font-size: 64px;
  font-family: Arial Black;
  dominant-baseline: central;
  text-anchor: middle;
}</style></svg>